<svg width="13" height="13" viewBox="0 0 13 13" fill="none" xmlns="http://www.w3.org/2000/svg">
<path fill-rule="evenodd" clip-rule="evenodd" d="M0.293 0.79299C0.480528 0.605519 0.734836 0.500203 1 0.500203C1.26516 0.500203 1.51947 0.605519 1.707 0.79299L6 5.08599L10.293 0.79299C10.3852 0.69748 10.4956 0.621297 10.6176 0.568888C10.7396 0.516479 10.8708 0.488893 11.0036 0.487739C11.1364 0.486585 11.2681 0.511887 11.391 0.562168C11.5139 0.612449 11.6255 0.686702 11.7194 0.780594C11.8133 0.874487 11.8875 0.986139 11.9378 1.10904C11.9881 1.23193 12.0134 1.36361 12.0123 1.49639C12.0111 1.62917 11.9835 1.76039 11.9311 1.88239C11.8787 2.0044 11.8025 2.11474 11.707 2.20699L7.414 6.49999L11.707 10.793C11.8892 10.9816 11.99 11.2342 11.9877 11.4964C11.9854 11.7586 11.8802 12.0094 11.6948 12.1948C11.5094 12.3802 11.2586 12.4854 10.9964 12.4877C10.7342 12.4899 10.4816 12.3891 10.293 12.207L6 7.91399L1.707 12.207C1.5184 12.3891 1.2658 12.4899 1.0036 12.4877C0.741402 12.4854 0.49059 12.3802 0.305182 12.1948C0.119773 12.0094 0.0146042 11.7586 0.0123258 11.4964C0.0100473 11.2342 0.110842 10.9816 0.293 10.793L4.586 6.49999L0.293 2.20699C0.105529 2.01946 0.000213623 1.76515 0.000213623 1.49999C0.000213623 1.23483 0.105529 0.980518 0.293 0.79299Z" fill="#A4A4A4"/>
</svg>
